# xmcd CD database file
#
# Track frame offsets:
#	150
#	25320
#	53183
#	77457
#	101325
#	126129
#	146367
#	174118
#	198549
#	226136
#
# Disc length: 3316 seconds
#
# Revision: 0
# Processed by: cddbd v1.5.2PL0 Copyright (c) Steve Scherf et al.
# Submitted via: CDex 1.70beta2
#
DISCID=730cf20a
DTITLE=Barb Jungr - Shelter From The Storm
DYEAR=2016
DGENRE=Jazz
TTITLE0=Bali Hai
TTITLE1=Stars Lazy But Shining
TTITLE2=Shelter from the Storm
TTITLE3=Sisters of Mercy
TTITLE4=Venus Rising
TTITLE5=Something's Coming
TTITLE6=Woodstock
TTITLE7=Hymn to Nina
TTITLE8=All Along the Watchtower - In Your Eyes
TTITLE9=Life on Mars?
EXTD=YEAR: 2016
EXTT0=
EXTT1=
EXTT2=
EXTT3=
EXTT4=
EXTT5=
EXTT6=
EXTT7=
EXTT8=
EXTT9=
PLAYORDER=
